<mxfile host="app.diagrams.net" agent="Mozilla/5.0 (Windows NT 10.0; Win64; x64) AppleWebKit/537.36 (KHTML, like Gecko) Chrome/134.0.0.0 Safari/537.36 Edg/134.0.0.0" version="26.1.1">
  <diagram name="第 1 页" id="aehAOSF5QFn-8IDbo02S">
    <mxGraphModel dx="696" dy="-7" grid="1" gridSize="10" guides="1" tooltips="1" connect="1" arrows="1" fold="1" page="0" pageScale="1" pageWidth="827" pageHeight="1169" math="0" shadow="0">
      <root>
        <mxCell id="0" />
        <mxCell id="1" parent="0" />
        <mxCell id="yw6k9dtPRZu7z185BtFa-42" value="" style="endArrow=none;html=1;rounded=0;strokeWidth=2;entryX=0;entryY=0.5;entryDx=0;entryDy=0;" parent="1" target="yw6k9dtPRZu7z185BtFa-54" edge="1">
          <mxGeometry width="50" height="50" relative="1" as="geometry">
            <mxPoint x="1119" y="560" as="sourcePoint" />
            <mxPoint x="1250" y="560" as="targetPoint" />
          </mxGeometry>
        </mxCell>
        <mxCell id="yw6k9dtPRZu7z185BtFa-43" value="" style="endArrow=none;html=1;rounded=0;strokeWidth=2;entryX=0;entryY=0.5;entryDx=0;entryDy=0;" parent="1" target="yw6k9dtPRZu7z185BtFa-66" edge="1">
          <mxGeometry width="50" height="50" relative="1" as="geometry">
            <mxPoint x="1120" y="670" as="sourcePoint" />
            <mxPoint x="1380" y="730" as="targetPoint" />
            <Array as="points">
              <mxPoint x="1120" y="760" />
            </Array>
          </mxGeometry>
        </mxCell>
        <mxCell id="yw6k9dtPRZu7z185BtFa-44" value="" style="endArrow=none;html=1;rounded=0;strokeWidth=2;" parent="1" edge="1">
          <mxGeometry width="50" height="50" relative="1" as="geometry">
            <mxPoint x="1080" y="650" as="sourcePoint" />
            <mxPoint x="1160" y="650" as="targetPoint" />
          </mxGeometry>
        </mxCell>
        <mxCell id="yw6k9dtPRZu7z185BtFa-45" value="" style="endArrow=none;html=1;rounded=0;strokeWidth=2;" parent="1" edge="1">
          <mxGeometry width="50" height="50" relative="1" as="geometry">
            <mxPoint x="1100" y="670" as="sourcePoint" />
            <mxPoint x="1140" y="670" as="targetPoint" />
          </mxGeometry>
        </mxCell>
        <mxCell id="yw6k9dtPRZu7z185BtFa-46" value="" style="endArrow=none;html=1;rounded=0;strokeWidth=2;" parent="1" edge="1">
          <mxGeometry width="50" height="50" relative="1" as="geometry">
            <mxPoint x="1120" y="650" as="sourcePoint" />
            <mxPoint x="1120" y="560" as="targetPoint" />
          </mxGeometry>
        </mxCell>
        <mxCell id="yw6k9dtPRZu7z185BtFa-47" value="" style="rounded=0;whiteSpace=wrap;html=1;strokeWidth=2;" parent="1" vertex="1">
          <mxGeometry x="1260" y="540" width="80" height="40" as="geometry" />
        </mxCell>
        <mxCell id="yw6k9dtPRZu7z185BtFa-48" value="" style="endArrow=none;html=1;rounded=0;strokeWidth=2;exitX=0.5;exitY=1;exitDx=0;exitDy=0;" parent="1" source="yw6k9dtPRZu7z185BtFa-65" edge="1">
          <mxGeometry width="50" height="50" relative="1" as="geometry">
            <mxPoint x="1475" y="569" as="sourcePoint" />
            <mxPoint x="1462" y="639" as="targetPoint" />
            <Array as="points" />
          </mxGeometry>
        </mxCell>
        <mxCell id="yw6k9dtPRZu7z185BtFa-49" value="&lt;font style=&quot;font-size: 24px;&quot;&gt;电源&lt;br&gt;6V&lt;/font&gt;" style="text;html=1;align=center;verticalAlign=middle;resizable=0;points=[];autosize=1;strokeColor=none;fillColor=none;" parent="1" vertex="1">
          <mxGeometry x="1005" y="625" width="70" height="70" as="geometry" />
        </mxCell>
        <mxCell id="yw6k9dtPRZu7z185BtFa-50" value="&lt;font style=&quot;font-size: 24px;&quot;&gt;电阻 R1&lt;br&gt;&lt;span style=&quot;font-size: 28px; background-color: rgb(251, 251, 251);&quot;&gt;470Ω&lt;/span&gt;&lt;/font&gt;" style="text;html=1;align=center;verticalAlign=middle;resizable=0;points=[];autosize=1;strokeColor=none;fillColor=none;" parent="1" vertex="1">
          <mxGeometry x="1248.5" y="466" width="103" height="74" as="geometry" />
        </mxCell>
        <mxCell id="yw6k9dtPRZu7z185BtFa-51" value="" style="endArrow=none;html=1;rounded=0;strokeWidth=2;" parent="1" edge="1">
          <mxGeometry width="50" height="50" relative="1" as="geometry">
            <mxPoint x="1432" y="639" as="sourcePoint" />
            <mxPoint x="1492" y="639" as="targetPoint" />
          </mxGeometry>
        </mxCell>
        <mxCell id="yw6k9dtPRZu7z185BtFa-52" value="" style="endArrow=none;html=1;rounded=0;strokeWidth=2;" parent="1" edge="1">
          <mxGeometry width="50" height="50" relative="1" as="geometry">
            <mxPoint x="1432" y="679" as="sourcePoint" />
            <mxPoint x="1492" y="679" as="targetPoint" />
          </mxGeometry>
        </mxCell>
        <mxCell id="yw6k9dtPRZu7z185BtFa-53" value="&lt;font style=&quot;font-size: 30px;&quot;&gt;＋&lt;/font&gt;" style="text;html=1;align=center;verticalAlign=middle;resizable=0;points=[];autosize=1;strokeColor=none;fillColor=none;" parent="1" vertex="1">
          <mxGeometry x="1447" y="599" width="50" height="50" as="geometry" />
        </mxCell>
        <mxCell id="yw6k9dtPRZu7z185BtFa-54" value="" style="ellipse;whiteSpace=wrap;html=1;aspect=fixed;strokeWidth=2;" parent="1" vertex="1">
          <mxGeometry x="1155" y="555" width="10" height="10" as="geometry" />
        </mxCell>
        <mxCell id="yw6k9dtPRZu7z185BtFa-55" value="" style="ellipse;whiteSpace=wrap;html=1;aspect=fixed;strokeWidth=2;" parent="1" vertex="1">
          <mxGeometry x="1205" y="555" width="10" height="10" as="geometry" />
        </mxCell>
        <mxCell id="yw6k9dtPRZu7z185BtFa-56" value="" style="endArrow=none;html=1;rounded=0;strokeWidth=2;exitX=1;exitY=0;exitDx=0;exitDy=0;" parent="1" source="yw6k9dtPRZu7z185BtFa-54" edge="1">
          <mxGeometry width="50" height="50" relative="1" as="geometry">
            <mxPoint x="1034" y="570" as="sourcePoint" />
            <mxPoint x="1205" y="540" as="targetPoint" />
          </mxGeometry>
        </mxCell>
        <mxCell id="yw6k9dtPRZu7z185BtFa-57" value="&lt;font style=&quot;font-size: 24px;&quot;&gt;开关 S1&lt;/font&gt;" style="text;html=1;align=center;verticalAlign=middle;resizable=0;points=[];autosize=1;strokeColor=none;fillColor=none;" parent="1" vertex="1">
          <mxGeometry x="1135" y="495" width="110" height="40" as="geometry" />
        </mxCell>
        <mxCell id="yw6k9dtPRZu7z185BtFa-58" value="" style="endArrow=none;html=1;rounded=0;strokeWidth=2;entryX=0;entryY=0.5;entryDx=0;entryDy=0;exitX=1;exitY=0.5;exitDx=0;exitDy=0;" parent="1" source="yw6k9dtPRZu7z185BtFa-55" target="yw6k9dtPRZu7z185BtFa-47" edge="1">
          <mxGeometry width="50" height="50" relative="1" as="geometry">
            <mxPoint x="1034" y="570" as="sourcePoint" />
            <mxPoint x="1165" y="570" as="targetPoint" />
          </mxGeometry>
        </mxCell>
        <mxCell id="yw6k9dtPRZu7z185BtFa-59" value="" style="ellipse;whiteSpace=wrap;html=1;aspect=fixed;strokeWidth=2;" parent="1" vertex="1">
          <mxGeometry x="1596" y="555" width="10" height="10" as="geometry" />
        </mxCell>
        <mxCell id="yw6k9dtPRZu7z185BtFa-60" value="" style="ellipse;whiteSpace=wrap;html=1;aspect=fixed;strokeWidth=2;" parent="1" vertex="1">
          <mxGeometry x="1646" y="555" width="10" height="10" as="geometry" />
        </mxCell>
        <mxCell id="yw6k9dtPRZu7z185BtFa-61" value="" style="endArrow=none;html=1;rounded=0;strokeWidth=2;exitX=1;exitY=0;exitDx=0;exitDy=0;" parent="1" source="yw6k9dtPRZu7z185BtFa-59" edge="1">
          <mxGeometry width="50" height="50" relative="1" as="geometry">
            <mxPoint x="1475" y="570" as="sourcePoint" />
            <mxPoint x="1646" y="540" as="targetPoint" />
          </mxGeometry>
        </mxCell>
        <mxCell id="yw6k9dtPRZu7z185BtFa-62" value="&lt;font style=&quot;font-size: 24px;&quot;&gt;开关 S2&lt;/font&gt;" style="text;html=1;align=center;verticalAlign=middle;resizable=0;points=[];autosize=1;strokeColor=none;fillColor=none;" parent="1" vertex="1">
          <mxGeometry x="1576" y="495" width="110" height="40" as="geometry" />
        </mxCell>
        <mxCell id="yw6k9dtPRZu7z185BtFa-63" value="" style="endArrow=none;html=1;rounded=0;strokeWidth=2;entryX=1;entryY=0.5;entryDx=0;entryDy=0;exitX=0;exitY=0.5;exitDx=0;exitDy=0;" parent="1" source="yw6k9dtPRZu7z185BtFa-72" target="yw6k9dtPRZu7z185BtFa-65" edge="1">
          <mxGeometry width="50" height="50" relative="1" as="geometry">
            <mxPoint x="1542" y="551" as="sourcePoint" />
            <mxPoint x="1482" y="580" as="targetPoint" />
          </mxGeometry>
        </mxCell>
        <mxCell id="yw6k9dtPRZu7z185BtFa-64" value="" style="endArrow=none;html=1;rounded=0;strokeWidth=2;entryX=0;entryY=0.5;entryDx=0;entryDy=0;" parent="1" edge="1">
          <mxGeometry width="50" height="50" relative="1" as="geometry">
            <mxPoint x="1422" y="560" as="sourcePoint" />
            <mxPoint x="1500" y="560" as="targetPoint" />
            <Array as="points" />
          </mxGeometry>
        </mxCell>
        <mxCell id="yw6k9dtPRZu7z185BtFa-65" value="" style="ellipse;whiteSpace=wrap;html=1;aspect=fixed;strokeWidth=2;fillColor=#000000;" parent="1" vertex="1">
          <mxGeometry x="1460" y="557.5" width="5" height="5" as="geometry" />
        </mxCell>
        <mxCell id="yw6k9dtPRZu7z185BtFa-66" value="" style="ellipse;whiteSpace=wrap;html=1;aspect=fixed;strokeWidth=2;fillColor=#000000;" parent="1" vertex="1">
          <mxGeometry x="1460" y="757" width="5" height="5" as="geometry" />
        </mxCell>
        <mxCell id="yw6k9dtPRZu7z185BtFa-67" value="" style="endArrow=none;html=1;rounded=0;strokeWidth=2;entryX=0.5;entryY=0;entryDx=0;entryDy=0;" parent="1" target="yw6k9dtPRZu7z185BtFa-66" edge="1">
          <mxGeometry width="50" height="50" relative="1" as="geometry">
            <mxPoint x="1462" y="679" as="sourcePoint" />
            <mxPoint x="1472" y="649" as="targetPoint" />
            <Array as="points" />
          </mxGeometry>
        </mxCell>
        <mxCell id="yw6k9dtPRZu7z185BtFa-68" value="" style="rounded=0;whiteSpace=wrap;html=1;strokeWidth=2;" parent="1" vertex="1">
          <mxGeometry x="1701" y="540" width="80" height="40" as="geometry" />
        </mxCell>
        <mxCell id="yw6k9dtPRZu7z185BtFa-69" value="" style="endArrow=none;html=1;rounded=0;strokeWidth=2;exitX=0;exitY=0.5;exitDx=0;exitDy=0;entryX=1;entryY=0.5;entryDx=0;entryDy=0;" parent="1" source="yw6k9dtPRZu7z185BtFa-68" target="yw6k9dtPRZu7z185BtFa-60" edge="1">
          <mxGeometry width="50" height="50" relative="1" as="geometry">
            <mxPoint x="1606" y="570" as="sourcePoint" />
            <mxPoint x="1554" y="570" as="targetPoint" />
          </mxGeometry>
        </mxCell>
        <mxCell id="yw6k9dtPRZu7z185BtFa-71" value="&lt;font style=&quot;font-size: 24px;&quot;&gt;电阻 R2&lt;br&gt;&lt;span style=&quot;font-size: 28px; background-color: rgb(251, 251, 251);&quot;&gt;470Ω&lt;/span&gt;&lt;/font&gt;" style="text;html=1;align=center;verticalAlign=middle;resizable=0;points=[];autosize=1;strokeColor=none;fillColor=none;" parent="1" vertex="1">
          <mxGeometry x="1690.5" y="467" width="103" height="74" as="geometry" />
        </mxCell>
        <mxCell id="yw6k9dtPRZu7z185BtFa-72" value="" style="ellipse;whiteSpace=wrap;html=1;aspect=fixed;strokeWidth=2;fillColor=#000000;" parent="1" vertex="1">
          <mxGeometry x="1549.5" y="557.5" width="5" height="5" as="geometry" />
        </mxCell>
        <mxCell id="yw6k9dtPRZu7z185BtFa-73" value="" style="endArrow=none;html=1;rounded=0;strokeWidth=2;exitX=0.5;exitY=1;exitDx=0;exitDy=0;" parent="1" source="yw6k9dtPRZu7z185BtFa-72" edge="1">
          <mxGeometry width="50" height="50" relative="1" as="geometry">
            <mxPoint x="1560" y="570" as="sourcePoint" />
            <mxPoint x="1552" y="640" as="targetPoint" />
          </mxGeometry>
        </mxCell>
        <mxCell id="yw6k9dtPRZu7z185BtFa-74" value="" style="endArrow=none;html=1;rounded=0;strokeWidth=2;" parent="1" edge="1">
          <mxGeometry width="50" height="50" relative="1" as="geometry">
            <mxPoint x="1522" y="639" as="sourcePoint" />
            <mxPoint x="1582" y="639" as="targetPoint" />
          </mxGeometry>
        </mxCell>
        <mxCell id="yw6k9dtPRZu7z185BtFa-75" value="" style="endArrow=none;html=1;rounded=0;strokeWidth=2;" parent="1" edge="1">
          <mxGeometry width="50" height="50" relative="1" as="geometry">
            <mxPoint x="1522" y="679" as="sourcePoint" />
            <mxPoint x="1582" y="679" as="targetPoint" />
          </mxGeometry>
        </mxCell>
        <mxCell id="yw6k9dtPRZu7z185BtFa-76" value="&lt;font style=&quot;font-size: 30px;&quot;&gt;＋&lt;/font&gt;" style="text;html=1;align=center;verticalAlign=middle;resizable=0;points=[];autosize=1;strokeColor=none;fillColor=none;" parent="1" vertex="1">
          <mxGeometry x="1537" y="599" width="50" height="50" as="geometry" />
        </mxCell>
        <mxCell id="yw6k9dtPRZu7z185BtFa-77" value="" style="endArrow=none;html=1;rounded=0;strokeWidth=2;entryX=0.5;entryY=0;entryDx=0;entryDy=0;" parent="1" target="yw6k9dtPRZu7z185BtFa-78" edge="1">
          <mxGeometry width="50" height="50" relative="1" as="geometry">
            <mxPoint x="1551.5" y="679" as="sourcePoint" />
            <mxPoint x="1553" y="750" as="targetPoint" />
            <Array as="points" />
          </mxGeometry>
        </mxCell>
        <mxCell id="yw6k9dtPRZu7z185BtFa-78" value="" style="ellipse;whiteSpace=wrap;html=1;aspect=fixed;strokeWidth=2;fillColor=#000000;" parent="1" vertex="1">
          <mxGeometry x="1549.5" y="757" width="5" height="5" as="geometry" />
        </mxCell>
        <mxCell id="yw6k9dtPRZu7z185BtFa-79" value="" style="endArrow=none;html=1;rounded=0;strokeWidth=2;entryX=0;entryY=0.5;entryDx=0;entryDy=0;exitX=1;exitY=0.5;exitDx=0;exitDy=0;" parent="1" source="yw6k9dtPRZu7z185BtFa-66" target="yw6k9dtPRZu7z185BtFa-78" edge="1">
          <mxGeometry width="50" height="50" relative="1" as="geometry">
            <mxPoint x="1561.5" y="689" as="sourcePoint" />
            <mxPoint x="1562" y="767" as="targetPoint" />
            <Array as="points" />
          </mxGeometry>
        </mxCell>
        <mxCell id="yw6k9dtPRZu7z185BtFa-80" value="" style="endArrow=none;html=1;rounded=0;strokeWidth=2;exitX=1;exitY=0.5;exitDx=0;exitDy=0;entryX=0;entryY=0.5;entryDx=0;entryDy=0;" parent="1" source="yw6k9dtPRZu7z185BtFa-72" target="yw6k9dtPRZu7z185BtFa-59" edge="1">
          <mxGeometry width="50" height="50" relative="1" as="geometry">
            <mxPoint x="1562" y="573" as="sourcePoint" />
            <mxPoint x="1562" y="651" as="targetPoint" />
          </mxGeometry>
        </mxCell>
        <mxCell id="yw6k9dtPRZu7z185BtFa-81" value="&lt;font style=&quot;font-size: 24px;&quot;&gt;电容 C1&lt;br&gt;470 uF&lt;/font&gt;" style="text;html=1;align=center;verticalAlign=middle;resizable=0;points=[];autosize=1;strokeColor=none;fillColor=none;" parent="1" vertex="1">
          <mxGeometry x="1320" y="624" width="110" height="70" as="geometry" />
        </mxCell>
        <mxCell id="yw6k9dtPRZu7z185BtFa-82" value="&lt;font style=&quot;font-size: 24px;&quot;&gt;电容 C2&lt;br&gt;470 uF&lt;/font&gt;" style="text;html=1;align=center;verticalAlign=middle;resizable=0;points=[];autosize=1;strokeColor=none;fillColor=none;" parent="1" vertex="1">
          <mxGeometry x="1579.5" y="624" width="110" height="70" as="geometry" />
        </mxCell>
        <mxCell id="yw6k9dtPRZu7z185BtFa-83" value="" style="verticalLabelPosition=bottom;verticalAlign=top;html=1;shape=mxgraph.basic.acute_triangle;dx=0.5;rotation=90;strokeWidth=2;fillColor=#FF0000;" parent="1" vertex="1">
          <mxGeometry x="1381" y="540" width="43" height="40" as="geometry" />
        </mxCell>
        <mxCell id="yw6k9dtPRZu7z185BtFa-84" value="" style="endArrow=none;html=1;rounded=0;strokeWidth=2;" parent="1" edge="1">
          <mxGeometry width="50" height="50" relative="1" as="geometry">
            <mxPoint x="1422" y="535" as="sourcePoint" />
            <mxPoint x="1422" y="585" as="targetPoint" />
            <Array as="points" />
          </mxGeometry>
        </mxCell>
        <mxCell id="yw6k9dtPRZu7z185BtFa-85" value="" style="endArrow=none;html=1;rounded=0;strokeWidth=2;entryX=0;entryY=0;entryDx=21.5;entryDy=0;exitX=1;exitY=0.5;exitDx=0;exitDy=0;entryPerimeter=0;" parent="1" source="yw6k9dtPRZu7z185BtFa-47" target="yw6k9dtPRZu7z185BtFa-83" edge="1">
          <mxGeometry width="50" height="50" relative="1" as="geometry">
            <mxPoint x="1351.5" y="587.33" as="sourcePoint" />
            <mxPoint x="1429.5" y="587.33" as="targetPoint" />
            <Array as="points" />
          </mxGeometry>
        </mxCell>
        <mxCell id="yw6k9dtPRZu7z185BtFa-87" value="" style="endArrow=classic;html=1;rounded=0;strokeWidth=2;strokeColor=#FF0000;" parent="1" edge="1">
          <mxGeometry width="50" height="50" relative="1" as="geometry">
            <mxPoint x="1392" y="530" as="sourcePoint" />
            <mxPoint x="1382" y="500" as="targetPoint" />
          </mxGeometry>
        </mxCell>
        <mxCell id="yw6k9dtPRZu7z185BtFa-91" value="" style="endArrow=classic;html=1;rounded=0;strokeWidth=2;strokeColor=#FF0000;" parent="1" edge="1">
          <mxGeometry width="50" height="50" relative="1" as="geometry">
            <mxPoint x="1411.5" y="530" as="sourcePoint" />
            <mxPoint x="1401.5" y="500" as="targetPoint" />
          </mxGeometry>
        </mxCell>
        <mxCell id="yw6k9dtPRZu7z185BtFa-100" value="" style="endArrow=none;html=1;rounded=0;strokeWidth=2;exitX=1;exitY=0.5;exitDx=0;exitDy=0;entryX=0;entryY=0;entryDx=21.5;entryDy=0;entryPerimeter=0;" parent="1" source="yw6k9dtPRZu7z185BtFa-78" target="yw6k9dtPRZu7z185BtFa-101" edge="1">
          <mxGeometry width="50" height="50" relative="1" as="geometry">
            <mxPoint x="1711" y="570" as="sourcePoint" />
            <mxPoint x="1822" y="690" as="targetPoint" />
            <Array as="points">
              <mxPoint x="1822" y="760" />
            </Array>
          </mxGeometry>
        </mxCell>
        <mxCell id="yw6k9dtPRZu7z185BtFa-93" value="" style="endArrow=none;html=1;rounded=0;strokeWidth=2;" parent="1" edge="1">
          <mxGeometry width="50" height="50" relative="1" as="geometry">
            <mxPoint x="1847" y="680" as="sourcePoint" />
            <mxPoint x="1797" y="680" as="targetPoint" />
            <Array as="points" />
          </mxGeometry>
        </mxCell>
        <mxCell id="yw6k9dtPRZu7z185BtFa-94" value="" style="endArrow=classic;html=1;rounded=0;strokeWidth=2;strokeColor=#00FF00;" parent="1" edge="1">
          <mxGeometry width="50" height="50" relative="1" as="geometry">
            <mxPoint x="1852" y="650" as="sourcePoint" />
            <mxPoint x="1882" y="640" as="targetPoint" />
          </mxGeometry>
        </mxCell>
        <mxCell id="yw6k9dtPRZu7z185BtFa-95" value="" style="endArrow=classic;html=1;rounded=0;strokeWidth=2;strokeColor=#00FF00;" parent="1" edge="1">
          <mxGeometry width="50" height="50" relative="1" as="geometry">
            <mxPoint x="1852" y="670" as="sourcePoint" />
            <mxPoint x="1882" y="660" as="targetPoint" />
          </mxGeometry>
        </mxCell>
        <mxCell id="yw6k9dtPRZu7z185BtFa-101" value="" style="verticalLabelPosition=bottom;verticalAlign=top;html=1;shape=mxgraph.basic.acute_triangle;dx=0.5;rotation=90;strokeWidth=2;fillColor=#00FF00;direction=south;" parent="1" vertex="1">
          <mxGeometry x="1802" y="638.5" width="40" height="43" as="geometry" />
        </mxCell>
        <mxCell id="yw6k9dtPRZu7z185BtFa-99" value="" style="endArrow=none;html=1;rounded=0;strokeWidth=2;entryX=1;entryY=0.5;entryDx=0;entryDy=0;exitX=0;exitY=0;exitDx=21.5;exitDy=0;exitPerimeter=0;" parent="1" source="yw6k9dtPRZu7z185BtFa-101" target="yw6k9dtPRZu7z185BtFa-68" edge="1">
          <mxGeometry width="50" height="50" relative="1" as="geometry">
            <mxPoint x="1832" y="630" as="sourcePoint" />
            <mxPoint x="1666" y="570" as="targetPoint" />
            <Array as="points">
              <mxPoint x="1822" y="560" />
            </Array>
          </mxGeometry>
        </mxCell>
        <mxCell id="IBE1laGyTlULYVz9BkNE-1" value="" style="endArrow=none;html=1;rounded=0;strokeWidth=2;entryX=0;entryY=0.5;entryDx=0;entryDy=0;" parent="1" target="IBE1laGyTlULYVz9BkNE-13" edge="1">
          <mxGeometry width="50" height="50" relative="1" as="geometry">
            <mxPoint x="230.5" y="434" as="sourcePoint" />
            <mxPoint x="361.5" y="434" as="targetPoint" />
            <Array as="points">
              <mxPoint x="451" y="434" />
            </Array>
          </mxGeometry>
        </mxCell>
        <mxCell id="IBE1laGyTlULYVz9BkNE-2" value="" style="endArrow=none;html=1;rounded=0;strokeWidth=2;entryX=0;entryY=0.5;entryDx=0;entryDy=0;" parent="1" target="IBE1laGyTlULYVz9BkNE-53" edge="1">
          <mxGeometry width="50" height="50" relative="1" as="geometry">
            <mxPoint x="231" y="615" as="sourcePoint" />
            <mxPoint x="441" y="755" as="targetPoint" />
            <Array as="points">
              <mxPoint x="231.25" y="755" />
            </Array>
          </mxGeometry>
        </mxCell>
        <mxCell id="IBE1laGyTlULYVz9BkNE-3" value="" style="endArrow=none;html=1;rounded=0;strokeWidth=2;" parent="1" edge="1">
          <mxGeometry width="50" height="50" relative="1" as="geometry">
            <mxPoint x="195" y="595" as="sourcePoint" />
            <mxPoint x="275" y="595" as="targetPoint" />
          </mxGeometry>
        </mxCell>
        <mxCell id="IBE1laGyTlULYVz9BkNE-4" value="" style="endArrow=none;html=1;rounded=0;strokeWidth=2;" parent="1" edge="1">
          <mxGeometry width="50" height="50" relative="1" as="geometry">
            <mxPoint x="215" y="615" as="sourcePoint" />
            <mxPoint x="255" y="615" as="targetPoint" />
          </mxGeometry>
        </mxCell>
        <mxCell id="IBE1laGyTlULYVz9BkNE-5" value="" style="endArrow=none;html=1;rounded=0;strokeWidth=2;" parent="1" edge="1">
          <mxGeometry width="50" height="50" relative="1" as="geometry">
            <mxPoint x="232" y="595" as="sourcePoint" />
            <mxPoint x="231.5" y="434" as="targetPoint" />
          </mxGeometry>
        </mxCell>
        <mxCell id="IBE1laGyTlULYVz9BkNE-6" value="" style="rounded=0;whiteSpace=wrap;html=1;strokeWidth=2;rotation=90;" parent="1" vertex="1">
          <mxGeometry x="411" y="655.5" width="80" height="40" as="geometry" />
        </mxCell>
        <mxCell id="IBE1laGyTlULYVz9BkNE-7" value="" style="endArrow=none;html=1;rounded=0;strokeWidth=2;exitX=0.5;exitY=1;exitDx=0;exitDy=0;" parent="1" source="IBE1laGyTlULYVz9BkNE-24" edge="1">
          <mxGeometry width="50" height="50" relative="1" as="geometry">
            <mxPoint x="1741" y="968" as="sourcePoint" />
            <mxPoint x="1728" y="1038" as="targetPoint" />
            <Array as="points" />
          </mxGeometry>
        </mxCell>
        <mxCell id="IBE1laGyTlULYVz9BkNE-8" value="&lt;font style=&quot;font-size: 24px;&quot;&gt;电源&lt;br&gt;6V&lt;/font&gt;" style="text;html=1;align=center;verticalAlign=middle;resizable=0;points=[];autosize=1;strokeColor=none;fillColor=none;" parent="1" vertex="1">
          <mxGeometry x="120" y="570" width="70" height="70" as="geometry" />
        </mxCell>
        <mxCell id="IBE1laGyTlULYVz9BkNE-9" value="&lt;font style=&quot;font-size: 24px;&quot;&gt;电阻 R&lt;sub&gt;1&lt;/sub&gt;&lt;br&gt;&lt;span style=&quot;font-size: 28px; background-color: rgb(251, 251, 251);&quot;&gt;100kΩ&lt;/span&gt;&lt;/font&gt;" style="text;html=1;align=center;verticalAlign=middle;resizable=0;points=[];autosize=1;strokeColor=none;fillColor=none;" parent="1" vertex="1">
          <mxGeometry x="322" y="637" width="110" height="80" as="geometry" />
        </mxCell>
        <mxCell id="IBE1laGyTlULYVz9BkNE-10" value="" style="endArrow=none;html=1;rounded=0;strokeWidth=2;" parent="1" edge="1">
          <mxGeometry width="50" height="50" relative="1" as="geometry">
            <mxPoint x="1698" y="1038" as="sourcePoint" />
            <mxPoint x="1758" y="1038" as="targetPoint" />
          </mxGeometry>
        </mxCell>
        <mxCell id="IBE1laGyTlULYVz9BkNE-11" value="" style="endArrow=none;html=1;rounded=0;strokeWidth=2;" parent="1" edge="1">
          <mxGeometry width="50" height="50" relative="1" as="geometry">
            <mxPoint x="1698" y="1078" as="sourcePoint" />
            <mxPoint x="1758" y="1078" as="targetPoint" />
          </mxGeometry>
        </mxCell>
        <mxCell id="IBE1laGyTlULYVz9BkNE-12" value="&lt;font style=&quot;font-size: 30px;&quot;&gt;＋&lt;/font&gt;" style="text;html=1;align=center;verticalAlign=middle;resizable=0;points=[];autosize=1;strokeColor=none;fillColor=none;" parent="1" vertex="1">
          <mxGeometry x="1713" y="998" width="50" height="50" as="geometry" />
        </mxCell>
        <mxCell id="IBE1laGyTlULYVz9BkNE-16" value="&lt;font style=&quot;font-size: 24px;&quot;&gt;开关 S&lt;sub&gt;1&lt;/sub&gt;&lt;/font&gt;" style="text;html=1;align=center;verticalAlign=middle;resizable=0;points=[];autosize=1;strokeColor=none;fillColor=none;" parent="1" vertex="1">
          <mxGeometry x="331" y="453" width="110" height="50" as="geometry" />
        </mxCell>
        <mxCell id="IBE1laGyTlULYVz9BkNE-17" value="" style="endArrow=none;html=1;rounded=0;strokeWidth=2;entryX=0.5;entryY=0;entryDx=0;entryDy=0;exitX=1;exitY=0.5;exitDx=0;exitDy=0;" parent="1" source="IBE1laGyTlULYVz9BkNE-14" target="IBE1laGyTlULYVz9BkNE-56" edge="1">
          <mxGeometry width="50" height="50" relative="1" as="geometry">
            <mxPoint x="444.75" y="608.000000000101" as="sourcePoint" />
            <mxPoint x="277.25" y="565" as="targetPoint" />
          </mxGeometry>
        </mxCell>
        <mxCell id="IBE1laGyTlULYVz9BkNE-18" value="" style="ellipse;whiteSpace=wrap;html=1;aspect=fixed;strokeWidth=2;" parent="1" vertex="1">
          <mxGeometry x="1862" y="954" width="10" height="10" as="geometry" />
        </mxCell>
        <mxCell id="IBE1laGyTlULYVz9BkNE-19" value="" style="ellipse;whiteSpace=wrap;html=1;aspect=fixed;strokeWidth=2;" parent="1" vertex="1">
          <mxGeometry x="1912" y="954" width="10" height="10" as="geometry" />
        </mxCell>
        <mxCell id="IBE1laGyTlULYVz9BkNE-20" value="" style="endArrow=none;html=1;rounded=0;strokeWidth=2;exitX=1;exitY=0;exitDx=0;exitDy=0;" parent="1" source="IBE1laGyTlULYVz9BkNE-18" edge="1">
          <mxGeometry width="50" height="50" relative="1" as="geometry">
            <mxPoint x="1741" y="969" as="sourcePoint" />
            <mxPoint x="1912" y="939" as="targetPoint" />
          </mxGeometry>
        </mxCell>
        <mxCell id="IBE1laGyTlULYVz9BkNE-21" value="&lt;font style=&quot;font-size: 24px;&quot;&gt;开关 S2&lt;/font&gt;" style="text;html=1;align=center;verticalAlign=middle;resizable=0;points=[];autosize=1;strokeColor=none;fillColor=none;" parent="1" vertex="1">
          <mxGeometry x="1842" y="894" width="110" height="40" as="geometry" />
        </mxCell>
        <mxCell id="IBE1laGyTlULYVz9BkNE-22" value="" style="endArrow=none;html=1;rounded=0;strokeWidth=2;entryX=1;entryY=0.5;entryDx=0;entryDy=0;exitX=0;exitY=0.5;exitDx=0;exitDy=0;" parent="1" source="IBE1laGyTlULYVz9BkNE-30" target="IBE1laGyTlULYVz9BkNE-24" edge="1">
          <mxGeometry width="50" height="50" relative="1" as="geometry">
            <mxPoint x="1808" y="950" as="sourcePoint" />
            <mxPoint x="1748" y="979" as="targetPoint" />
          </mxGeometry>
        </mxCell>
        <mxCell id="IBE1laGyTlULYVz9BkNE-23" value="" style="endArrow=none;html=1;rounded=0;strokeWidth=2;entryX=0;entryY=0.5;entryDx=0;entryDy=0;" parent="1" edge="1">
          <mxGeometry width="50" height="50" relative="1" as="geometry">
            <mxPoint x="1688" y="959" as="sourcePoint" />
            <mxPoint x="1766" y="959" as="targetPoint" />
            <Array as="points" />
          </mxGeometry>
        </mxCell>
        <mxCell id="IBE1laGyTlULYVz9BkNE-24" value="" style="ellipse;whiteSpace=wrap;html=1;aspect=fixed;strokeWidth=2;fillColor=#000000;" parent="1" vertex="1">
          <mxGeometry x="1726" y="956.5" width="5" height="5" as="geometry" />
        </mxCell>
        <mxCell id="IBE1laGyTlULYVz9BkNE-25" value="" style="ellipse;whiteSpace=wrap;html=1;aspect=fixed;strokeWidth=2;fillColor=#000000;" parent="1" vertex="1">
          <mxGeometry x="1726" y="1156" width="5" height="5" as="geometry" />
        </mxCell>
        <mxCell id="IBE1laGyTlULYVz9BkNE-26" value="" style="endArrow=none;html=1;rounded=0;strokeWidth=2;entryX=0.5;entryY=0;entryDx=0;entryDy=0;" parent="1" target="IBE1laGyTlULYVz9BkNE-25" edge="1">
          <mxGeometry width="50" height="50" relative="1" as="geometry">
            <mxPoint x="1728" y="1078" as="sourcePoint" />
            <mxPoint x="1738" y="1048" as="targetPoint" />
            <Array as="points" />
          </mxGeometry>
        </mxCell>
        <mxCell id="IBE1laGyTlULYVz9BkNE-27" value="" style="rounded=0;whiteSpace=wrap;html=1;strokeWidth=2;" parent="1" vertex="1">
          <mxGeometry x="1967" y="939" width="80" height="40" as="geometry" />
        </mxCell>
        <mxCell id="IBE1laGyTlULYVz9BkNE-28" value="" style="endArrow=none;html=1;rounded=0;strokeWidth=2;exitX=0;exitY=0.5;exitDx=0;exitDy=0;entryX=1;entryY=0.5;entryDx=0;entryDy=0;" parent="1" source="IBE1laGyTlULYVz9BkNE-27" target="IBE1laGyTlULYVz9BkNE-19" edge="1">
          <mxGeometry width="50" height="50" relative="1" as="geometry">
            <mxPoint x="1872" y="969" as="sourcePoint" />
            <mxPoint x="1820" y="969" as="targetPoint" />
          </mxGeometry>
        </mxCell>
        <mxCell id="IBE1laGyTlULYVz9BkNE-29" value="&lt;font style=&quot;font-size: 24px;&quot;&gt;电阻 R2&lt;br&gt;&lt;span style=&quot;font-size: 28px; background-color: rgb(251, 251, 251);&quot;&gt;470Ω&lt;/span&gt;&lt;/font&gt;" style="text;html=1;align=center;verticalAlign=middle;resizable=0;points=[];autosize=1;strokeColor=none;fillColor=none;" parent="1" vertex="1">
          <mxGeometry x="1956.5" y="866" width="103" height="74" as="geometry" />
        </mxCell>
        <mxCell id="IBE1laGyTlULYVz9BkNE-30" value="" style="ellipse;whiteSpace=wrap;html=1;aspect=fixed;strokeWidth=2;fillColor=#000000;" parent="1" vertex="1">
          <mxGeometry x="1815.5" y="956.5" width="5" height="5" as="geometry" />
        </mxCell>
        <mxCell id="IBE1laGyTlULYVz9BkNE-31" value="" style="endArrow=none;html=1;rounded=0;strokeWidth=2;exitX=0.5;exitY=1;exitDx=0;exitDy=0;" parent="1" source="IBE1laGyTlULYVz9BkNE-30" edge="1">
          <mxGeometry width="50" height="50" relative="1" as="geometry">
            <mxPoint x="1826" y="969" as="sourcePoint" />
            <mxPoint x="1818" y="1039" as="targetPoint" />
          </mxGeometry>
        </mxCell>
        <mxCell id="IBE1laGyTlULYVz9BkNE-32" value="" style="endArrow=none;html=1;rounded=0;strokeWidth=2;" parent="1" edge="1">
          <mxGeometry width="50" height="50" relative="1" as="geometry">
            <mxPoint x="1788" y="1038" as="sourcePoint" />
            <mxPoint x="1848" y="1038" as="targetPoint" />
          </mxGeometry>
        </mxCell>
        <mxCell id="IBE1laGyTlULYVz9BkNE-33" value="" style="endArrow=none;html=1;rounded=0;strokeWidth=2;" parent="1" edge="1">
          <mxGeometry width="50" height="50" relative="1" as="geometry">
            <mxPoint x="1788" y="1078" as="sourcePoint" />
            <mxPoint x="1848" y="1078" as="targetPoint" />
          </mxGeometry>
        </mxCell>
        <mxCell id="IBE1laGyTlULYVz9BkNE-34" value="&lt;font style=&quot;font-size: 30px;&quot;&gt;＋&lt;/font&gt;" style="text;html=1;align=center;verticalAlign=middle;resizable=0;points=[];autosize=1;strokeColor=none;fillColor=none;" parent="1" vertex="1">
          <mxGeometry x="1803" y="998" width="50" height="50" as="geometry" />
        </mxCell>
        <mxCell id="IBE1laGyTlULYVz9BkNE-35" value="" style="endArrow=none;html=1;rounded=0;strokeWidth=2;entryX=0.5;entryY=0;entryDx=0;entryDy=0;" parent="1" target="IBE1laGyTlULYVz9BkNE-36" edge="1">
          <mxGeometry width="50" height="50" relative="1" as="geometry">
            <mxPoint x="1817.5" y="1078" as="sourcePoint" />
            <mxPoint x="1819" y="1149" as="targetPoint" />
            <Array as="points" />
          </mxGeometry>
        </mxCell>
        <mxCell id="IBE1laGyTlULYVz9BkNE-36" value="" style="ellipse;whiteSpace=wrap;html=1;aspect=fixed;strokeWidth=2;fillColor=#000000;" parent="1" vertex="1">
          <mxGeometry x="1815.5" y="1156" width="5" height="5" as="geometry" />
        </mxCell>
        <mxCell id="IBE1laGyTlULYVz9BkNE-37" value="" style="endArrow=none;html=1;rounded=0;strokeWidth=2;entryX=0;entryY=0.5;entryDx=0;entryDy=0;exitX=1;exitY=0.5;exitDx=0;exitDy=0;" parent="1" source="IBE1laGyTlULYVz9BkNE-25" target="IBE1laGyTlULYVz9BkNE-36" edge="1">
          <mxGeometry width="50" height="50" relative="1" as="geometry">
            <mxPoint x="1827.5" y="1088" as="sourcePoint" />
            <mxPoint x="1828" y="1166" as="targetPoint" />
            <Array as="points" />
          </mxGeometry>
        </mxCell>
        <mxCell id="IBE1laGyTlULYVz9BkNE-38" value="" style="endArrow=none;html=1;rounded=0;strokeWidth=2;exitX=1;exitY=0.5;exitDx=0;exitDy=0;entryX=0;entryY=0.5;entryDx=0;entryDy=0;" parent="1" source="IBE1laGyTlULYVz9BkNE-30" target="IBE1laGyTlULYVz9BkNE-18" edge="1">
          <mxGeometry width="50" height="50" relative="1" as="geometry">
            <mxPoint x="1828" y="972" as="sourcePoint" />
            <mxPoint x="1828" y="1050" as="targetPoint" />
          </mxGeometry>
        </mxCell>
        <mxCell id="IBE1laGyTlULYVz9BkNE-39" value="&lt;font style=&quot;font-size: 24px;&quot;&gt;电容 C1&lt;br&gt;470 uF&lt;/font&gt;" style="text;html=1;align=center;verticalAlign=middle;resizable=0;points=[];autosize=1;strokeColor=none;fillColor=none;" parent="1" vertex="1">
          <mxGeometry x="1570" y="1023" width="110" height="70" as="geometry" />
        </mxCell>
        <mxCell id="IBE1laGyTlULYVz9BkNE-40" value="&lt;font style=&quot;font-size: 24px;&quot;&gt;电容 C2&lt;br&gt;470 uF&lt;/font&gt;" style="text;html=1;align=center;verticalAlign=middle;resizable=0;points=[];autosize=1;strokeColor=none;fillColor=none;" parent="1" vertex="1">
          <mxGeometry x="1845.5" y="1023" width="110" height="70" as="geometry" />
        </mxCell>
        <mxCell id="IBE1laGyTlULYVz9BkNE-41" value="" style="verticalLabelPosition=bottom;verticalAlign=top;html=1;shape=mxgraph.basic.acute_triangle;dx=0.5;rotation=90;strokeWidth=2;fillColor=#FF0000;" parent="1" vertex="1">
          <mxGeometry x="1647" y="939" width="43" height="40" as="geometry" />
        </mxCell>
        <mxCell id="IBE1laGyTlULYVz9BkNE-42" value="" style="endArrow=none;html=1;rounded=0;strokeWidth=2;" parent="1" edge="1">
          <mxGeometry width="50" height="50" relative="1" as="geometry">
            <mxPoint x="1688" y="934" as="sourcePoint" />
            <mxPoint x="1688" y="984" as="targetPoint" />
            <Array as="points" />
          </mxGeometry>
        </mxCell>
        <mxCell id="IBE1laGyTlULYVz9BkNE-43" value="" style="endArrow=none;html=1;rounded=0;strokeWidth=2;entryX=0;entryY=0;entryDx=21.5;entryDy=0;exitX=1;exitY=0.5;exitDx=0;exitDy=0;entryPerimeter=0;" parent="1" target="IBE1laGyTlULYVz9BkNE-41" edge="1">
          <mxGeometry width="50" height="50" relative="1" as="geometry">
            <mxPoint x="1606" y="959" as="sourcePoint" />
            <mxPoint x="1695.5" y="986.33" as="targetPoint" />
            <Array as="points" />
          </mxGeometry>
        </mxCell>
        <mxCell id="IBE1laGyTlULYVz9BkNE-44" value="" style="endArrow=classic;html=1;rounded=0;strokeWidth=2;strokeColor=#FF0000;" parent="1" edge="1">
          <mxGeometry width="50" height="50" relative="1" as="geometry">
            <mxPoint x="1658" y="929" as="sourcePoint" />
            <mxPoint x="1648" y="899" as="targetPoint" />
          </mxGeometry>
        </mxCell>
        <mxCell id="IBE1laGyTlULYVz9BkNE-45" value="" style="endArrow=classic;html=1;rounded=0;strokeWidth=2;strokeColor=#FF0000;" parent="1" edge="1">
          <mxGeometry width="50" height="50" relative="1" as="geometry">
            <mxPoint x="1677.5" y="929" as="sourcePoint" />
            <mxPoint x="1667.5" y="899" as="targetPoint" />
          </mxGeometry>
        </mxCell>
        <mxCell id="IBE1laGyTlULYVz9BkNE-46" value="" style="endArrow=none;html=1;rounded=0;strokeWidth=2;exitX=1;exitY=0.5;exitDx=0;exitDy=0;entryX=0;entryY=0;entryDx=21.5;entryDy=0;entryPerimeter=0;" parent="1" source="IBE1laGyTlULYVz9BkNE-36" target="IBE1laGyTlULYVz9BkNE-50" edge="1">
          <mxGeometry width="50" height="50" relative="1" as="geometry">
            <mxPoint x="1977" y="969" as="sourcePoint" />
            <mxPoint x="2088" y="1089" as="targetPoint" />
            <Array as="points">
              <mxPoint x="2088" y="1159" />
            </Array>
          </mxGeometry>
        </mxCell>
        <mxCell id="IBE1laGyTlULYVz9BkNE-47" value="" style="endArrow=none;html=1;rounded=0;strokeWidth=2;" parent="1" edge="1">
          <mxGeometry width="50" height="50" relative="1" as="geometry">
            <mxPoint x="2113" y="1079" as="sourcePoint" />
            <mxPoint x="2063" y="1079" as="targetPoint" />
            <Array as="points" />
          </mxGeometry>
        </mxCell>
        <mxCell id="IBE1laGyTlULYVz9BkNE-48" value="" style="endArrow=classic;html=1;rounded=0;strokeWidth=2;strokeColor=#00FF00;" parent="1" edge="1">
          <mxGeometry width="50" height="50" relative="1" as="geometry">
            <mxPoint x="2118" y="1049" as="sourcePoint" />
            <mxPoint x="2148" y="1039" as="targetPoint" />
          </mxGeometry>
        </mxCell>
        <mxCell id="IBE1laGyTlULYVz9BkNE-49" value="" style="endArrow=classic;html=1;rounded=0;strokeWidth=2;strokeColor=#00FF00;" parent="1" edge="1">
          <mxGeometry width="50" height="50" relative="1" as="geometry">
            <mxPoint x="2118" y="1069" as="sourcePoint" />
            <mxPoint x="2148" y="1059" as="targetPoint" />
          </mxGeometry>
        </mxCell>
        <mxCell id="IBE1laGyTlULYVz9BkNE-50" value="" style="verticalLabelPosition=bottom;verticalAlign=top;html=1;shape=mxgraph.basic.acute_triangle;dx=0.5;rotation=90;strokeWidth=2;fillColor=#00FF00;direction=south;" parent="1" vertex="1">
          <mxGeometry x="2068" y="1037.5" width="40" height="43" as="geometry" />
        </mxCell>
        <mxCell id="IBE1laGyTlULYVz9BkNE-51" value="" style="endArrow=none;html=1;rounded=0;strokeWidth=2;entryX=1;entryY=0.5;entryDx=0;entryDy=0;exitX=0;exitY=0;exitDx=21.5;exitDy=0;exitPerimeter=0;" parent="1" source="IBE1laGyTlULYVz9BkNE-50" target="IBE1laGyTlULYVz9BkNE-27" edge="1">
          <mxGeometry width="50" height="50" relative="1" as="geometry">
            <mxPoint x="2098" y="1029" as="sourcePoint" />
            <mxPoint x="1932" y="969" as="targetPoint" />
            <Array as="points">
              <mxPoint x="2088" y="959" />
            </Array>
          </mxGeometry>
        </mxCell>
        <mxCell id="IBE1laGyTlULYVz9BkNE-52" value="" style="group;rotation=90;" parent="1" vertex="1" connectable="0">
          <mxGeometry x="428" y="466" width="60" height="25" as="geometry" />
        </mxCell>
        <mxCell id="IBE1laGyTlULYVz9BkNE-13" value="" style="ellipse;whiteSpace=wrap;html=1;aspect=fixed;strokeWidth=2;rotation=90;" parent="IBE1laGyTlULYVz9BkNE-52" vertex="1">
          <mxGeometry x="18" y="-17" width="10" height="10" as="geometry" />
        </mxCell>
        <mxCell id="IBE1laGyTlULYVz9BkNE-14" value="" style="ellipse;whiteSpace=wrap;html=1;aspect=fixed;strokeWidth=2;rotation=90;" parent="IBE1laGyTlULYVz9BkNE-52" vertex="1">
          <mxGeometry x="18" y="33" width="10" height="10" as="geometry" />
        </mxCell>
        <mxCell id="IBE1laGyTlULYVz9BkNE-15" value="" style="endArrow=none;html=1;rounded=0;strokeWidth=2;exitX=1;exitY=0;exitDx=0;exitDy=0;movable=0;resizable=0;rotatable=0;deletable=0;editable=0;locked=1;connectable=0;" parent="IBE1laGyTlULYVz9BkNE-52" source="IBE1laGyTlULYVz9BkNE-13" edge="1">
          <mxGeometry width="50" height="50" relative="1" as="geometry">
            <mxPoint x="12" y="-138" as="sourcePoint" />
            <mxPoint x="43" y="33" as="targetPoint" />
          </mxGeometry>
        </mxCell>
        <mxCell id="IBE1laGyTlULYVz9BkNE-53" value="" style="ellipse;whiteSpace=wrap;html=1;aspect=fixed;strokeWidth=2;fillColor=#000000;" parent="1" vertex="1">
          <mxGeometry x="448.5" y="753" width="5" height="5" as="geometry" />
        </mxCell>
        <mxCell id="IBE1laGyTlULYVz9BkNE-54" value="" style="endArrow=none;html=1;rounded=0;strokeWidth=2;entryX=0.5;entryY=0;entryDx=0;entryDy=0;exitX=1;exitY=0.5;exitDx=0;exitDy=0;" parent="1" source="IBE1laGyTlULYVz9BkNE-6" target="IBE1laGyTlULYVz9BkNE-53" edge="1">
          <mxGeometry width="50" height="50" relative="1" as="geometry">
            <mxPoint x="431" y="735" as="sourcePoint" />
            <mxPoint x="461" y="646" as="targetPoint" />
          </mxGeometry>
        </mxCell>
        <mxCell id="IBE1laGyTlULYVz9BkNE-56" value="" style="ellipse;whiteSpace=wrap;html=1;aspect=fixed;strokeWidth=2;fillColor=#000000;" parent="1" vertex="1">
          <mxGeometry x="448.5" y="552.5" width="5" height="5" as="geometry" />
        </mxCell>
        <mxCell id="IBE1laGyTlULYVz9BkNE-58" value="" style="endArrow=none;html=1;rounded=0;strokeWidth=2;entryX=0;entryY=0.5;entryDx=0;entryDy=0;exitX=0.5;exitY=1;exitDx=0;exitDy=0;" parent="1" source="IBE1laGyTlULYVz9BkNE-56" target="IBE1laGyTlULYVz9BkNE-6" edge="1">
          <mxGeometry width="50" height="50" relative="1" as="geometry">
            <mxPoint x="461" y="519" as="sourcePoint" />
            <mxPoint x="462" y="562" as="targetPoint" />
          </mxGeometry>
        </mxCell>
        <mxCell id="IBE1laGyTlULYVz9BkNE-60" value="" style="endArrow=none;html=1;rounded=0;strokeWidth=2;entryX=1;entryY=0.5;entryDx=0;entryDy=0;" parent="1" target="IBE1laGyTlULYVz9BkNE-56" edge="1">
          <mxGeometry width="50" height="50" relative="1" as="geometry">
            <mxPoint x="551" y="555" as="sourcePoint" />
            <mxPoint x="461" y="563" as="targetPoint" />
          </mxGeometry>
        </mxCell>
        <mxCell id="IBE1laGyTlULYVz9BkNE-61" value="" style="endArrow=none;html=1;rounded=0;strokeWidth=2;entryX=1;entryY=0.5;entryDx=0;entryDy=0;" parent="1" target="IBE1laGyTlULYVz9BkNE-53" edge="1">
          <mxGeometry width="50" height="50" relative="1" as="geometry">
            <mxPoint x="551" y="755" as="sourcePoint" />
            <mxPoint x="461" y="753" as="targetPoint" />
          </mxGeometry>
        </mxCell>
        <mxCell id="IBE1laGyTlULYVz9BkNE-64" value="&lt;font style=&quot;font-size: 24px;&quot;&gt;输出电压 V&lt;sub&gt;o&lt;/sub&gt;&lt;br&gt;&lt;/font&gt;" style="text;html=1;align=center;verticalAlign=middle;resizable=0;points=[];autosize=1;strokeColor=none;fillColor=none;" parent="1" vertex="1">
          <mxGeometry x="517" y="628" width="150" height="50" as="geometry" />
        </mxCell>
        <mxCell id="IBE1laGyTlULYVz9BkNE-65" value="" style="endArrow=classic;html=1;rounded=0;exitX=0.161;exitY=0.006;exitDx=0;exitDy=0;exitPerimeter=0;fontSize=11;strokeWidth=2;" parent="1" source="IBE1laGyTlULYVz9BkNE-64" edge="1">
          <mxGeometry width="50" height="50" relative="1" as="geometry">
            <mxPoint x="551" y="635" as="sourcePoint" />
            <mxPoint x="541" y="555" as="targetPoint" />
          </mxGeometry>
        </mxCell>
        <mxCell id="IBE1laGyTlULYVz9BkNE-66" value="" style="endArrow=classic;html=1;rounded=0;exitX=0.16;exitY=0.977;exitDx=0;exitDy=0;exitPerimeter=0;fontSize=11;strokeWidth=2;" parent="1" source="IBE1laGyTlULYVz9BkNE-64" edge="1">
          <mxGeometry width="50" height="50" relative="1" as="geometry">
            <mxPoint x="551" y="685" as="sourcePoint" />
            <mxPoint x="541" y="755" as="targetPoint" />
          </mxGeometry>
        </mxCell>
        <mxCell id="OLBha7-Q1yhaD9aPrio0-2" value="" style="endArrow=none;html=1;rounded=0;strokeWidth=2;entryX=0;entryY=0.5;entryDx=0;entryDy=0;" edge="1" parent="1" target="OLBha7-Q1yhaD9aPrio0-15">
          <mxGeometry width="50" height="50" relative="1" as="geometry">
            <mxPoint x="240" y="1100" as="sourcePoint" />
            <mxPoint x="450" y="1240" as="targetPoint" />
            <Array as="points">
              <mxPoint x="240.25" y="1240" />
            </Array>
          </mxGeometry>
        </mxCell>
        <mxCell id="OLBha7-Q1yhaD9aPrio0-3" value="" style="endArrow=none;html=1;rounded=0;strokeWidth=2;" edge="1" parent="1">
          <mxGeometry width="50" height="50" relative="1" as="geometry">
            <mxPoint x="204" y="1080" as="sourcePoint" />
            <mxPoint x="284" y="1080" as="targetPoint" />
          </mxGeometry>
        </mxCell>
        <mxCell id="OLBha7-Q1yhaD9aPrio0-4" value="" style="endArrow=none;html=1;rounded=0;strokeWidth=2;" edge="1" parent="1">
          <mxGeometry width="50" height="50" relative="1" as="geometry">
            <mxPoint x="224" y="1100" as="sourcePoint" />
            <mxPoint x="264" y="1100" as="targetPoint" />
          </mxGeometry>
        </mxCell>
        <mxCell id="OLBha7-Q1yhaD9aPrio0-5" value="" style="endArrow=none;html=1;rounded=0;strokeWidth=2;entryX=0;entryY=0.5;entryDx=0;entryDy=0;" edge="1" parent="1" target="OLBha7-Q1yhaD9aPrio0-31">
          <mxGeometry width="50" height="50" relative="1" as="geometry">
            <mxPoint x="241" y="1080" as="sourcePoint" />
            <mxPoint x="240.5" y="919" as="targetPoint" />
            <Array as="points">
              <mxPoint x="241" y="919" />
            </Array>
          </mxGeometry>
        </mxCell>
        <mxCell id="OLBha7-Q1yhaD9aPrio0-6" value="" style="rounded=0;whiteSpace=wrap;html=1;strokeWidth=2;rotation=90;" vertex="1" parent="1">
          <mxGeometry x="420" y="1140.5" width="80" height="40" as="geometry" />
        </mxCell>
        <mxCell id="OLBha7-Q1yhaD9aPrio0-7" value="&lt;font style=&quot;font-size: 24px;&quot;&gt;电源&lt;br&gt;6V&lt;/font&gt;" style="text;html=1;align=center;verticalAlign=middle;resizable=0;points=[];autosize=1;strokeColor=none;fillColor=none;" vertex="1" parent="1">
          <mxGeometry x="129" y="1055" width="70" height="70" as="geometry" />
        </mxCell>
        <mxCell id="OLBha7-Q1yhaD9aPrio0-8" value="&lt;font style=&quot;font-size: 24px;&quot;&gt;电阻 R&lt;sub&gt;1&lt;/sub&gt;&lt;br&gt;&lt;span style=&quot;font-size: 28px; background-color: rgb(251, 251, 251);&quot;&gt;100kΩ&lt;/span&gt;&lt;/font&gt;" style="text;html=1;align=center;verticalAlign=middle;resizable=0;points=[];autosize=1;strokeColor=none;fillColor=none;" vertex="1" parent="1">
          <mxGeometry x="331" y="1122" width="110" height="80" as="geometry" />
        </mxCell>
        <mxCell id="OLBha7-Q1yhaD9aPrio0-9" value="&lt;font style=&quot;font-size: 24px;&quot;&gt;开关 S&lt;sub&gt;1&lt;/sub&gt;&lt;/font&gt;" style="text;html=1;align=center;verticalAlign=middle;resizable=0;points=[];autosize=1;strokeColor=none;fillColor=none;" vertex="1" parent="1">
          <mxGeometry x="340" y="938" width="110" height="50" as="geometry" />
        </mxCell>
        <mxCell id="OLBha7-Q1yhaD9aPrio0-10" value="" style="endArrow=none;html=1;rounded=0;strokeWidth=2;entryX=0.5;entryY=0;entryDx=0;entryDy=0;exitX=1;exitY=0.5;exitDx=0;exitDy=0;" edge="1" parent="1" source="OLBha7-Q1yhaD9aPrio0-33">
          <mxGeometry width="50" height="50" relative="1" as="geometry">
            <mxPoint x="453.75" y="1093.000000000101" as="sourcePoint" />
            <mxPoint x="460" y="1037.5" as="targetPoint" />
          </mxGeometry>
        </mxCell>
        <mxCell id="OLBha7-Q1yhaD9aPrio0-11" value="" style="group;rotation=90;" vertex="1" connectable="0" parent="1">
          <mxGeometry x="437" y="951" width="60" height="25" as="geometry" />
        </mxCell>
        <mxCell id="OLBha7-Q1yhaD9aPrio0-12" value="" style="ellipse;whiteSpace=wrap;html=1;aspect=fixed;strokeWidth=2;rotation=90;" vertex="1" parent="OLBha7-Q1yhaD9aPrio0-11">
          <mxGeometry x="18" y="-17" width="10" height="10" as="geometry" />
        </mxCell>
        <mxCell id="OLBha7-Q1yhaD9aPrio0-13" value="" style="ellipse;whiteSpace=wrap;html=1;aspect=fixed;strokeWidth=2;rotation=90;" vertex="1" parent="OLBha7-Q1yhaD9aPrio0-11">
          <mxGeometry x="18" y="33" width="10" height="10" as="geometry" />
        </mxCell>
        <mxCell id="OLBha7-Q1yhaD9aPrio0-14" value="" style="endArrow=none;html=1;rounded=0;strokeWidth=2;exitX=1;exitY=0;exitDx=0;exitDy=0;movable=0;resizable=0;rotatable=0;deletable=0;editable=0;locked=1;connectable=0;" edge="1" parent="OLBha7-Q1yhaD9aPrio0-11" source="OLBha7-Q1yhaD9aPrio0-12">
          <mxGeometry width="50" height="50" relative="1" as="geometry">
            <mxPoint x="12" y="-138" as="sourcePoint" />
            <mxPoint x="43" y="33" as="targetPoint" />
          </mxGeometry>
        </mxCell>
        <mxCell id="OLBha7-Q1yhaD9aPrio0-15" value="" style="ellipse;whiteSpace=wrap;html=1;aspect=fixed;strokeWidth=2;fillColor=#000000;" vertex="1" parent="1">
          <mxGeometry x="457.5" y="1238" width="5" height="5" as="geometry" />
        </mxCell>
        <mxCell id="OLBha7-Q1yhaD9aPrio0-16" value="" style="endArrow=none;html=1;rounded=0;strokeWidth=2;entryX=0.5;entryY=0;entryDx=0;entryDy=0;exitX=1;exitY=0.5;exitDx=0;exitDy=0;" edge="1" parent="1" source="OLBha7-Q1yhaD9aPrio0-6" target="OLBha7-Q1yhaD9aPrio0-15">
          <mxGeometry width="50" height="50" relative="1" as="geometry">
            <mxPoint x="440" y="1220" as="sourcePoint" />
            <mxPoint x="470" y="1131" as="targetPoint" />
          </mxGeometry>
        </mxCell>
        <mxCell id="OLBha7-Q1yhaD9aPrio0-18" value="" style="endArrow=none;html=1;rounded=0;strokeWidth=2;entryX=0;entryY=0.5;entryDx=0;entryDy=0;exitX=0.5;exitY=1;exitDx=0;exitDy=0;" edge="1" parent="1" target="OLBha7-Q1yhaD9aPrio0-6">
          <mxGeometry width="50" height="50" relative="1" as="geometry">
            <mxPoint x="460" y="1042.5" as="sourcePoint" />
            <mxPoint x="471" y="1047" as="targetPoint" />
          </mxGeometry>
        </mxCell>
        <mxCell id="OLBha7-Q1yhaD9aPrio0-19" value="" style="endArrow=none;html=1;rounded=0;strokeWidth=2;entryX=1;entryY=0.5;entryDx=0;entryDy=0;exitX=0.5;exitY=0;exitDx=0;exitDy=0;" edge="1" parent="1" target="OLBha7-Q1yhaD9aPrio0-29" source="OLBha7-Q1yhaD9aPrio0-38">
          <mxGeometry width="50" height="50" relative="1" as="geometry">
            <mxPoint x="540" y="1070" as="sourcePoint" />
            <mxPoint x="462.5" y="1040" as="targetPoint" />
            <Array as="points">
              <mxPoint x="540" y="1040" />
            </Array>
          </mxGeometry>
        </mxCell>
        <mxCell id="OLBha7-Q1yhaD9aPrio0-20" value="" style="endArrow=none;html=1;rounded=0;strokeWidth=2;entryX=1;entryY=0.5;entryDx=0;entryDy=0;exitX=0;exitY=0.5;exitDx=0;exitDy=0;" edge="1" parent="1" target="OLBha7-Q1yhaD9aPrio0-15" source="OLBha7-Q1yhaD9aPrio0-25">
          <mxGeometry width="50" height="50" relative="1" as="geometry">
            <mxPoint x="540" y="1241" as="sourcePoint" />
            <mxPoint x="470" y="1238" as="targetPoint" />
          </mxGeometry>
        </mxCell>
        <mxCell id="OLBha7-Q1yhaD9aPrio0-24" value="" style="rounded=0;whiteSpace=wrap;html=1;strokeWidth=2;rotation=90;" vertex="1" parent="1">
          <mxGeometry x="500" y="1140.5" width="80" height="40" as="geometry" />
        </mxCell>
        <mxCell id="OLBha7-Q1yhaD9aPrio0-25" value="" style="ellipse;whiteSpace=wrap;html=1;aspect=fixed;strokeWidth=2;fillColor=#000000;" vertex="1" parent="1">
          <mxGeometry x="537.5" y="1238" width="5" height="5" as="geometry" />
        </mxCell>
        <mxCell id="OLBha7-Q1yhaD9aPrio0-26" value="" style="endArrow=none;html=1;rounded=0;strokeWidth=2;entryX=1;entryY=0.5;entryDx=0;entryDy=0;exitX=0.5;exitY=0;exitDx=0;exitDy=0;" edge="1" parent="1" source="OLBha7-Q1yhaD9aPrio0-25" target="OLBha7-Q1yhaD9aPrio0-24">
          <mxGeometry width="50" height="50" relative="1" as="geometry">
            <mxPoint x="548" y="1251" as="sourcePoint" />
            <mxPoint x="473" y="1251" as="targetPoint" />
          </mxGeometry>
        </mxCell>
        <mxCell id="OLBha7-Q1yhaD9aPrio0-27" value="" style="group;rotation=90;" vertex="1" connectable="0" parent="1">
          <mxGeometry x="517" y="951.5" width="60" height="25" as="geometry" />
        </mxCell>
        <mxCell id="OLBha7-Q1yhaD9aPrio0-28" value="" style="ellipse;whiteSpace=wrap;html=1;aspect=fixed;strokeWidth=2;rotation=90;" vertex="1" parent="OLBha7-Q1yhaD9aPrio0-27">
          <mxGeometry x="18" y="-17" width="10" height="10" as="geometry" />
        </mxCell>
        <mxCell id="OLBha7-Q1yhaD9aPrio0-29" value="" style="ellipse;whiteSpace=wrap;html=1;aspect=fixed;strokeWidth=2;rotation=90;" vertex="1" parent="OLBha7-Q1yhaD9aPrio0-27">
          <mxGeometry x="18" y="33" width="10" height="10" as="geometry" />
        </mxCell>
        <mxCell id="OLBha7-Q1yhaD9aPrio0-30" value="" style="endArrow=none;html=1;rounded=0;strokeWidth=2;exitX=1;exitY=0;exitDx=0;exitDy=0;movable=0;resizable=0;rotatable=0;deletable=0;editable=0;locked=1;connectable=0;" edge="1" parent="OLBha7-Q1yhaD9aPrio0-27" source="OLBha7-Q1yhaD9aPrio0-28">
          <mxGeometry width="50" height="50" relative="1" as="geometry">
            <mxPoint x="12" y="-138" as="sourcePoint" />
            <mxPoint x="43" y="33" as="targetPoint" />
          </mxGeometry>
        </mxCell>
        <mxCell id="OLBha7-Q1yhaD9aPrio0-31" value="" style="ellipse;whiteSpace=wrap;html=1;aspect=fixed;strokeWidth=2;fillColor=#000000;" vertex="1" parent="1">
          <mxGeometry x="457.5" y="917" width="5" height="5" as="geometry" />
        </mxCell>
        <mxCell id="OLBha7-Q1yhaD9aPrio0-32" value="" style="endArrow=none;html=1;rounded=0;strokeWidth=2;entryX=0;entryY=0.5;entryDx=0;entryDy=0;exitX=0.5;exitY=1;exitDx=0;exitDy=0;" edge="1" parent="1" source="OLBha7-Q1yhaD9aPrio0-31" target="OLBha7-Q1yhaD9aPrio0-12">
          <mxGeometry width="50" height="50" relative="1" as="geometry">
            <mxPoint x="470" y="1004" as="sourcePoint" />
            <mxPoint x="470" y="1047.5" as="targetPoint" />
          </mxGeometry>
        </mxCell>
        <mxCell id="OLBha7-Q1yhaD9aPrio0-34" value="" style="endArrow=none;html=1;rounded=0;strokeWidth=2;entryX=0.5;entryY=0;entryDx=0;entryDy=0;exitX=1;exitY=0.5;exitDx=0;exitDy=0;" edge="1" parent="1" source="OLBha7-Q1yhaD9aPrio0-13" target="OLBha7-Q1yhaD9aPrio0-33">
          <mxGeometry width="50" height="50" relative="1" as="geometry">
            <mxPoint x="460" y="994" as="sourcePoint" />
            <mxPoint x="460" y="1037.5" as="targetPoint" />
          </mxGeometry>
        </mxCell>
        <mxCell id="OLBha7-Q1yhaD9aPrio0-33" value="" style="ellipse;whiteSpace=wrap;html=1;aspect=fixed;strokeWidth=2;fillColor=#000000;" vertex="1" parent="1">
          <mxGeometry x="457.5" y="1037.5" width="5" height="5" as="geometry" />
        </mxCell>
        <mxCell id="OLBha7-Q1yhaD9aPrio0-35" value="" style="endArrow=none;html=1;rounded=0;strokeWidth=2;exitX=1;exitY=0.5;exitDx=0;exitDy=0;entryX=0;entryY=0.5;entryDx=0;entryDy=0;" edge="1" parent="1" source="OLBha7-Q1yhaD9aPrio0-31" target="OLBha7-Q1yhaD9aPrio0-36">
          <mxGeometry width="50" height="50" relative="1" as="geometry">
            <mxPoint x="500" y="935" as="sourcePoint" />
            <mxPoint x="540" y="920" as="targetPoint" />
          </mxGeometry>
        </mxCell>
        <mxCell id="OLBha7-Q1yhaD9aPrio0-36" value="" style="ellipse;whiteSpace=wrap;html=1;aspect=fixed;strokeWidth=2;fillColor=#000000;" vertex="1" parent="1">
          <mxGeometry x="537.5" y="917" width="5" height="5" as="geometry" />
        </mxCell>
        <mxCell id="OLBha7-Q1yhaD9aPrio0-37" value="" style="endArrow=none;html=1;rounded=0;strokeWidth=2;entryX=0;entryY=0.5;entryDx=0;entryDy=0;exitX=0.5;exitY=1;exitDx=0;exitDy=0;" edge="1" parent="1" source="OLBha7-Q1yhaD9aPrio0-36" target="OLBha7-Q1yhaD9aPrio0-28">
          <mxGeometry width="50" height="50" relative="1" as="geometry">
            <mxPoint x="470" y="932" as="sourcePoint" />
            <mxPoint x="470" y="944" as="targetPoint" />
          </mxGeometry>
        </mxCell>
        <mxCell id="OLBha7-Q1yhaD9aPrio0-38" value="" style="ellipse;whiteSpace=wrap;html=1;aspect=fixed;strokeWidth=2;fillColor=#000000;" vertex="1" parent="1">
          <mxGeometry x="537.5" y="1077.5" width="5" height="5" as="geometry" />
        </mxCell>
        <mxCell id="OLBha7-Q1yhaD9aPrio0-40" value="" style="endArrow=none;html=1;rounded=0;strokeWidth=2;exitX=0.5;exitY=1;exitDx=0;exitDy=0;" edge="1" parent="1" source="OLBha7-Q1yhaD9aPrio0-38">
          <mxGeometry width="50" height="50" relative="1" as="geometry">
            <mxPoint x="497" y="1068" as="sourcePoint" />
            <mxPoint x="540" y="1120" as="targetPoint" />
          </mxGeometry>
        </mxCell>
        <mxCell id="OLBha7-Q1yhaD9aPrio0-41" value="&lt;font style=&quot;font-size: 24px;&quot;&gt;电阻 R&lt;sub&gt;2&lt;/sub&gt;&lt;br&gt;&lt;span style=&quot;font-size: 28px; background-color: rgb(251, 251, 251);&quot;&gt;100kΩ&lt;/span&gt;&lt;/font&gt;" style="text;html=1;align=center;verticalAlign=middle;resizable=0;points=[];autosize=1;strokeColor=none;fillColor=none;" vertex="1" parent="1">
          <mxGeometry x="560" y="1125" width="110" height="80" as="geometry" />
        </mxCell>
        <mxCell id="OLBha7-Q1yhaD9aPrio0-42" value="&lt;font style=&quot;font-size: 24px;&quot;&gt;开关 S&lt;sub&gt;2&lt;/sub&gt;&lt;/font&gt;" style="text;html=1;align=center;verticalAlign=middle;resizable=0;points=[];autosize=1;strokeColor=none;fillColor=none;" vertex="1" parent="1">
          <mxGeometry x="550" y="938.5" width="110" height="50" as="geometry" />
        </mxCell>
      </root>
    </mxGraphModel>
  </diagram>
</mxfile>
